<?xml version="1.0" standalone="no"?><!DOCTYPE svg PUBLIC "-//W3C//DTD SVG 1.1//EN" "http://www.w3.org/Graphics/SVG/1.1/DTD/svg11.dtd"><svg t="1578750398649" class="icon" viewBox="0 0 1024 1024" version="1.1" xmlns="http://www.w3.org/2000/svg" p-id="1942" xmlns:xlink="http://www.w3.org/1999/xlink" width="200" height="200"><defs><style type="text/css"></style></defs><path d="M512 0C229.980328 0 0 229.980328 0 512S229.980328 1024 512 1024 1024 794.019672 1024 512 794.019672 0 512 0z m151.081967 540.537705h-120.865574v120.865574c0 18.465574-15.108197 33.57377-33.57377 33.57377s-33.57377-15.108197-33.573771-33.57377v-120.865574H352.52459c-18.465574 0-33.57377-15.108197-33.57377-33.573771s15.108197-33.57377 33.57377-33.57377h120.865574V352.52459c0-18.465574 15.108197-33.57377 33.57377-33.57377s33.57377 15.108197 33.573771 33.57377v120.865574h120.865574c18.465574 0 33.57377 15.108197 33.57377 33.57377s-13.429508 33.57377-31.895082 33.573771z" fill="#50D9E3" p-id="1943"></path></svg>