<?xml version="1.0" standalone="no"?><!DOCTYPE svg PUBLIC "-//W3C//DTD SVG 1.1//EN" "http://www.w3.org/Graphics/SVG/1.1/DTD/svg11.dtd"><svg t="1578798749620" class="icon" viewBox="0 0 1573 1024" version="1.1" xmlns="http://www.w3.org/2000/svg" p-id="2248" xmlns:xlink="http://www.w3.org/1999/xlink" width="307.2265625" height="200"><defs><style type="text/css"></style></defs><path d="M1445.446836 184.287089c-22.816565 15.188285-40.7483 22.804151-53.58417 22.804151h-0.490345c-16.069665 36.633125-48.047615 71.348318-94.357297 89.435225a2.197243 2.197243 0 0 1-1.582759-4.090347c44.63382-17.422769 75.600045-50.642099 91.409019-85.785568a19.56415 19.56415 0 0 1-9.304143-4.301382c-13.481387-11.470352-7.299315-40.177265 0.136552-56.668999 2.700002-5.977245 9.720006-19.787598 17.360699-18.657942 3.866899 0.564828 6.362073 4.735865 7.411039 12.401387 2.668967 19.539322-0.515173 41.623473-9.21104 63.248313 10.01173-0.428276 25.578636-5.921383 49.797961-22.034496 72.235905-48.060028 115.808344-101.96075 116.546966-144.167671 0.254483-14.35656-4.723451-25.932429-14.021388-32.604847a2.191036 2.191036 0 0 1 2.544829-3.550347c10.502075 7.52897 16.125527 20.402081 15.852423 36.235883-0.372414 20.954495-12.65587 77.306942-118.508346 147.73664z m-47.333821-44.267613c-0.831725-6.10759-2.457932-8.478626-3.699313-8.658626a0.80069 0.80069 0 0 0-0.242069-0.01862c-2.575864 0-7.721384 5.517934-12.51311 16.13794-8.311039 18.440701-11.59449 42.771749-1.291036 51.5421 1.936553 1.651035 4.60552 2.966898 8.273798 3.469657 8.838626-21.339323 12.103455-43.181405 9.47173-62.472451z m-15.399319 701.963175a5.958624 5.958624 0 1 1 0 11.929662h-86.325569a5.958624 5.958624 0 1 1 0-11.929662h86.325569z m-259.218775-188.398043c29.15381-47.75589 83.091773-89.280053 129.873181-106.187649a3.935175 3.935175 0 0 1-3.258623-0.254483 4.059313 4.059313 0 0 1-1.96138-3.699313 4.059313 4.059313 0 1 1 8.100004 0 4.040692 4.040692 0 0 1-1.874484 3.612416c13.984146-4.959313 27.335189-7.795867 39.122093-7.795866l-170.000791 114.324895z m96.616609-450.248543a19.862081 19.862081 0 0 1-19.868287-19.893115 19.862081 19.862081 0 1 1 39.724161 0 19.849667 19.849667 0 0 1-19.855874 19.893115z m0-26.267601a6.424142 6.424142 0 0 0-6.368279 6.374486c0 3.475864 2.892416 6.374487 6.368279 6.374487a6.417935 6.417935 0 0 0 6.355866-6.374487 6.417935 6.417935 0 0 0-6.355866-6.374486z m-13.500008 97.920058v6.753107h6.746901c3.662071 0 6.753107 3.097243 6.753107 6.759314 0 3.674485-3.091036 6.759314-6.753107 6.759315h-6.746901v6.759314c0 3.668278-3.091036 6.759314-6.753107 6.759314-3.662071 0-6.746901-3.091036-6.746901-6.759314v-6.759314h-6.7469a6.833797 6.833797 0 0 1-6.753108-6.759315c0-3.662071 3.084829-6.759314 6.753108-6.759314h6.7469v-6.753107c0-3.668278 3.084829-6.759314 6.746901-6.759315s6.753107 3.084829 6.753107 6.759315z m-61.057277-35.925539h-6.746901v6.759314c0 3.668278-3.091036 6.753107-6.7469 6.753108a6.82759 6.82759 0 0 1-6.746901-6.753108v-6.759314h-6.753107c-3.662071 0-6.746901-3.091036-6.746901-6.759314s3.084829-6.759314 6.746901-6.759315h6.753107v-6.759314c0-3.662071 3.084829-6.753107 6.746901-6.753107 3.655864 0 6.746901 3.084829 6.7469 6.753107v6.759314h6.746901c3.668278 0 6.753107 3.091036 6.753107 6.759315s-3.084829 6.759314-6.753107 6.759314z m-45.490372 60.809002a5.995866 5.995866 0 0 1-2.917243-5.381383v-0.006207a5.983452 5.983452 0 1 1 2.917243 5.38759z m12.960008 53.137272a30.879329 30.879329 0 0 1 9.043453 21.910358v439.665778a30.891742 30.891742 0 0 1-9.043453 21.916565 31.009674 31.009674 0 0 1-7.746212 5.480693h165.283546c3.289657 0 5.952417 2.66276 5.952418 5.964831a5.958624 5.958624 0 0 1-5.952418 5.964831H357.774467a5.958624 5.958624 0 0 1 0-11.929662h104.902821a30.866915 30.866915 0 0 1-7.740004-5.480693 30.897949 30.897949 0 0 1-9.049661-21.916565V374.919615a30.885536 30.885536 0 0 1 30.953812-30.960018h614.278295a30.885536 30.885536 0 0 1 21.904151 9.04966z m-19.160701-0.297931H474.091778c-9.043454 0-16.572424 7.733798-16.572424 17.013114v449.578197c0 9.285523 7.52897 17.013114 16.572424 17.013114h619.771402c9.043454 0 16.578631-7.727591 16.57863-17.013114V369.72444h-0.006207c0-9.279316-7.52897-17.013114-16.572423-17.013114z m-229.884964 129.389042l134.286286 73.353147c-59.052449 0-90.477985-2.855174-134.286286-73.353147z m0 0z m11.426903 196.727703c6.194486 14.766216 17.62139-5.238624 17.62139-5.238624 12.376559-11.904835 24.759325 11.43311 24.759325 11.433111 4.760692 9.049661-3.811037 18.099321-3.811037 18.099321-11.898628-22.388289-17.615183-11.43311-17.615183-11.43311-13.810353 21.916565-22.382082 8.100005-22.382082 8.100004-9.049661-17.149665-13.332422-5.238624-13.332422-5.238623-12.382766 19.055184-21.432426 9.527592-21.432426 9.527591-14.760009-22.86622-20.948288-9.527592-20.948289-9.527591-14.760009 24.771739-23.809669 11.904835-23.809669 11.904834-11.426903-20.960702-19.048977-12.382766-19.048977-12.382766-18.571045 24.771739-30.47588 3.811037-30.47588 3.811037-6.18828-12.860697-17.143458 8.571729-17.143458 8.571729-1.427587 3.817244-5.710348 5.722762-9.521385 4.7669-0.477931 0-0.955863-0.477931-1.427587-0.477932-18.093114-27.626913-25.237256-14.760009-25.237257-14.760008-13.332422 19.526908-20.476564 13.810353-20.476563 13.810353-15.709664-25.24967-20.954495-14.288284-20.954496-14.288285-9.521385 13.810353-9.993109-12.388973-9.993109-12.388973 14.760009-19.533115 24.759325-3.80483 24.759325-3.804829 9.049661 24.765532 19.998633 1.899311 19.998633 1.899311 14.288284-18.099321 29.048293 4.288968 29.048293 4.288968 7.144142 15.244147 13.332422 0 13.332421 0 8.577936-16.671734 18.571045-8.577936 18.571046-8.577936 10.955179 17.627597 19.526908 7.622073 19.526908 7.622073 13.332422-21.432426 25.715188-5.716555 25.715188-5.716555 12.376559 23.815876 19.048977 4.288968 19.048976 4.288968 11.426903-20.004839 27.142775-3.811037 27.142775-3.811036 10.948972 18.571045 19.520701-1.427587 19.520701-1.427587 10.471041-13.81656 18.564839 0.949656 18.564839 0.949655zM569.696662 555.453515l134.28008-73.353147c-43.808302 70.497973-75.233838 73.353147-134.28008 73.353147z m331.547783-408.550587a4.053106 4.053106 0 0 1-3.457244-3.811036 4.06552 4.06552 0 0 1-1.96138-3.680692 4.040692 4.040692 0 0 1 6.132417-3.686899 4.059313 4.059313 0 0 1 1.967588 3.680692v0.006207a4.053106 4.053106 0 0 1-2.681381 7.491728zM560.851829 229.411253a22.903462 22.903462 0 0 1-22.94691-22.984151 22.891048 22.891048 0 0 1 22.94691-22.984152 22.903462 22.903462 0 0 1 22.94691 22.984152 22.903462 22.903462 0 0 1-22.94691 22.984151z m0-32.449674a9.465523 9.465523 0 0 0 0 18.924839 9.47173 9.47173 0 0 0 9.453109-9.459316 9.477937 9.477937 0 0 0-9.453109-9.465523z m-112.388342 8.820005a5.977245 5.977245 0 0 1-2.929657-5.344141v-0.006207a5.977245 5.977245 0 1 1 11.95449 0.006207v0.006207a5.989659 5.989659 0 0 1-9.024833 5.337934z m-80.292462 450.031301a4.06552 4.06552 0 0 1 1.961381 3.699313v0.006207a4.059313 4.059313 0 1 1-8.100005 0 4.06552 4.06552 0 0 1 6.138624-3.70552z m-9.465523 163.818718a4.059313 4.059313 0 0 1 1.973795 3.655864v0.006207a4.053106 4.053106 0 1 1-8.100005 0 4.053106 4.053106 0 0 1 6.12621-3.662071z m-4.692416-253.17946a6.833797 6.833797 0 0 1-4.133796-6.200694v-6.765521h-6.753107c-3.662071 0-6.746901-3.091036-6.746901-6.759314s3.084829-6.759314 6.746901-6.759315h6.753107v-6.759314a6.82759 6.82759 0 0 1 6.746901-6.753107c3.668278 0 6.753107 3.091036 6.753107 6.753107v6.759314h6.753108c3.662071 0 6.746901 3.091036 6.7469 6.759315s-3.091036 6.759314-6.7469 6.759314h-6.753108v6.765521a6.82759 6.82759 0 0 1-6.753107 6.753108 6.517245 6.517245 0 0 1-2.594484-0.540001c35.056573 21.097254 69.275213 52.473135 90.428329 87.120052L274.459246 539.259713c22.86622 0 51.473824 10.303454 79.55384 27.19243z m83.606946-286.448446h-6.746901v6.759314c0 3.668278-3.084829 6.759314-6.7469 6.759315s-6.753107-3.084829-6.753108-6.759315v-6.759314h-6.7469a6.82759 6.82759 0 0 1-6.746901-6.753107c0-3.668278 3.084829-6.759314 6.746901-6.759315h6.7469v-6.759314c0-3.668278 3.091036-6.759314 6.753108-6.759315 3.662071 0 6.746901 3.091036 6.7469 6.759315v6.759314h6.746901c3.668278 0 6.753107 3.091036 6.753107 6.759315 0 3.662071-3.084829 6.753107-6.753107 6.753107z m-144.993189 283.084306a22.915876 22.915876 0 0 1 6.697245 16.262078 22.903462 22.903462 0 0 1-22.94691 22.984152 22.884841 22.884841 0 0 1-22.94691-22.984152 22.884841 22.884841 0 0 1 22.94691-22.984151 22.872427 22.872427 0 0 1 16.249665 6.722073z m-25.702774 16.262078a9.477937 9.477937 0 0 0 9.453109 9.465523 9.47173 9.47173 0 0 0 0-18.931046 9.477937 9.477937 0 0 0-9.453109 9.465523z m70.473145 268.597401a5.958624 5.958624 0 0 1-5.958624 5.964831H245.113021a5.958624 5.958624 0 0 1-5.958624-5.964831 5.958624 5.958624 0 0 1 5.958624-5.964831h86.325569a5.958624 5.958624 0 0 1 5.958624 5.964831z m-113.55524 5.964831H186.104021a5.958624 5.958624 0 0 1 0-11.929662h37.737953c3.289657 0 5.952417 2.66276 5.952418 5.964831a5.958624 5.958624 0 0 1-5.952418 5.964831z m-124.181453-87.393155c-8.857247 16.150354-26.118636 27.81312-50.791064 34.125537-17.764148 4.537244-34.473124 5.1269-41.964853 5.1269-2.414484 0-3.866899-0.062069-4.096554-0.074483a2.979312 2.979312 0 0 1-2.836553-3.115864c0.074483-1.644829 1.626208-3.078623 3.109657-2.836553 0.738621-0.006207 64.278659 2.420691 88.373845-31.35726-11.240696 1.098621-19.570356-4.537244-23.784841-16.373803-6.610349-18.527597-4.977934-34.119331 4.36345-41.716577 6.101383-4.953106 14.573802-5.375176 21.612427-1.061379 4.270347 2.625519 17.714493 13.425525 11.5138 42.399335-0.502759 2.358622-1.154483 4.68621-1.955174 6.964142 35.131055-17.006907 84.823499-83.973153 79.541427-110.439376a2.991726 2.991726 0 0 1 3.897933-3.54414 2.979312 2.979312 0 0 1 1.94276 2.377243c6.250349 31.27657-50.108306 106.28696-88.92626 119.526278z m-9.124143-52.193824a13.686215 13.686215 0 0 0-7.150349-2.116553c-2.768278 0-5.455865 0.96207-7.597246 2.718622-7.286901 5.92759-8.224143 19.04277-2.507588 35.075193 3.854485 10.818627 11.122765 14.611043 22.233117 11.551042a48.953822 48.953822 0 0 0 3.823451-11.166214c4.276554-19.980012-1.744139-31.729674-8.801385-36.06209z m229.040825-49.202098a6.82759 6.82759 0 0 1 6.746901 6.759314v6.753107h6.7469c3.668278 0 6.753107 3.091036 6.753108 6.759315s-3.084829 6.759314-6.753108 6.759314h-6.7469v6.759314a6.82759 6.82759 0 0 1-6.746901 6.753108c-3.662071 0-6.753107-3.084829-6.753107-6.753108v-6.759314h-6.746901c-3.662071 0-6.746901-3.091036-6.7469-6.759314 0-3.662071 3.078623-6.759314 6.7469-6.759315h6.746901v-6.753107c0-3.668278 3.091036-6.759314 6.753107-6.759314z m146.309053 233.553241h37.737953a5.964831 5.964831 0 0 1 0 11.93587h-37.737953a5.958624 5.958624 0 0 1 0-11.93587z m70.932455 0h222.442891a5.964831 5.964831 0 0 1 0 11.93587H536.818711a5.958624 5.958624 0 0 1 0-11.93587zM672.563619 1024h-37.731746v-11.935869h37.731746V1024z m255.637393 0h-222.44289v-11.935869h222.44289V1024z m64.222797 0h-20.954495v-11.935869h20.954495V1024z m-195.858737-119.352485c0-3.295864 2.668967-5.971038 5.958625-5.971038h259.429808a5.964831 5.964831 0 0 1 0 11.93587h-259.429808a5.958624 5.958624 0 0 1-5.958625-5.964832z m304.206387-5.971038h60.597967a5.964831 5.964831 0 0 1 0 11.93587h-60.597967a5.958624 5.958624 0 1 1 0-11.93587z m150.672504-179.323554a19.868288 19.868288 0 0 1-5.803452-14.064836 19.855874 19.855874 0 0 1 19.862081-19.893115 19.837253 19.837253 0 0 1 19.86208 19.893115 19.84346 19.84346 0 0 1-19.86208 19.893115 19.837253 19.837253 0 0 1-14.058629-5.828279z m20.420701-14.064836a6.424142 6.424142 0 0 0-6.362072-6.374487 6.430349 6.430349 0 0 0-6.362073 6.374487c0 3.475864 2.892416 6.36828 6.362073 6.36828a6.417935 6.417935 0 0 0 6.362072-6.36828z m132.126286 136.694564h37.725539a5.958624 5.958624 0 0 1 5.958624 5.964831 5.958624 5.958624 0 0 1-5.958624 5.964831h-37.725539a5.958624 5.958624 0 1 1 0-11.929662z" p-id="2249"></path></svg>