<?xml version="1.0" standalone="no"?><!DOCTYPE svg PUBLIC "-//W3C//DTD SVG 1.1//EN" "http://www.w3.org/Graphics/SVG/1.1/DTD/svg11.dtd"><svg t="1578821008223" class="icon" viewBox="0 0 1024 1024" version="1.1" xmlns="http://www.w3.org/2000/svg" p-id="1903" xmlns:xlink="http://www.w3.org/1999/xlink" width="200" height="200"><defs><style type="text/css"></style></defs><path d="M512 0C228.430769 0 0 228.430769 0 512s228.430769 512 512 512 512-228.430769 512-512S795.569231 0 512 0z m269.784615 417.476923L521.846154 671.507692c-19.692308 21.661538-51.2 23.630769-72.861539 5.907693-1.969231-1.969231-1.969231-3.938462-3.938461-3.938462s-3.938462-1.969231-3.938462-3.938461l-187.076923-183.138462c-15.753846-17.723077-13.784615-45.292308 5.907693-61.046154 15.753846-17.723077 43.323077-19.692308 63.015384-5.907692l161.476923 157.538461 230.4-226.461538c19.692308-21.661538 51.2-23.630769 72.861539-5.907692 15.753846 21.661538 13.784615 53.169231-5.907693 72.861538z" fill="#93D96F" p-id="1904"></path></svg>